# xmcd
#
# Track frame offsets: 
#        150
#        29208
#        78874
#        118019
#        156995
#        195586
#        223636
#        257259
#
# Disc length: 3930 seconds
#
# Revision: 1
# Processed by: cddbd v1.5.2PL0 Copyright (c) Steve Scherf et al.
# Submitted via: ExactAudioCopy v1.0b1
#
DISCID=680f5808
DTITLE=Myra Melford's Be Bread - The Whole Tree Gone
DYEAR=2009
DGENRE=Jazz
TTITLE0=Through the Same Gate
TTITLE1=Moon Bird
TTITLE2=Night
TTITLE3=The Whole Tree Gone
TTITLE4=A Generation Comes and Another Goes
TTITLE5=I See a Horizon
TTITLE6=On the Lip of Insanity
TTITLE7=Knocking from the Inside
EXTD=YEAR: 2010
EXTT0=
EXTT1=
EXTT2=
EXTT3=
EXTT4=
EXTT5=
EXTT6=
EXTT7=
PLAYORDER=
